# xmcd CD database file
#
# Track frame offsets:
#	150
#	45193
#	91295
#	135345
#
# Disc length: 3372 seconds
#
# Revision: 0
# Processed by: cddbd v1.5.2PL0 Copyright (c) Steve Scherf et al.
# Submitted via: CDex 1.51
#
DISCID=220d2a04
DTITLE=Vaiyasaki Dasa - Kirtan Rasa
DYEAR=1900
DGENRE=New Age
TTITLE0=Jaya Radha Madhava
TTITLE1=Hare Krishna
TTITLE2=Namaste Narasimhaya
TTITLE3=Hare Krishna
EXTD=
EXTT0=
EXTT1=
EXTT2=
EXTT3=
PLAYORDER=
